<mxfile host="app.diagrams.net" agent="Mozilla/5.0 (Windows NT 10.0; Win64; x64) AppleWebKit/537.36 (KHTML, like Gecko) Chrome/134.0.0.0 Safari/537.36" version="26.1.3">
  <diagram name="Page-1" id="C4U7gec7BdB0vKAa673d">
    <mxGraphModel dx="2150" dy="982" grid="1" gridSize="10" guides="1" tooltips="1" connect="1" arrows="1" fold="1" page="1" pageScale="1" pageWidth="850" pageHeight="1100" math="0" shadow="0">
      <root>
        <mxCell id="0" />
        <mxCell id="1" parent="0" />
        <mxCell id="TGHrzIEuHahXpjnbnEz_-1" style="edgeStyle=orthogonalEdgeStyle;rounded=0;orthogonalLoop=1;jettySize=auto;html=1;exitX=0.25;exitY=0;exitDx=0;exitDy=0;entryX=0.5;entryY=1;entryDx=0;entryDy=0;curved=1;strokeColor=default;startArrow=none;startFill=0;endArrow=none;" parent="1" source="TGHrzIEuHahXpjnbnEz_-10" target="TGHrzIEuHahXpjnbnEz_-11" edge="1">
          <mxGeometry relative="1" as="geometry" />
        </mxCell>
        <mxCell id="TGHrzIEuHahXpjnbnEz_-2" style="edgeStyle=orthogonalEdgeStyle;rounded=1;orthogonalLoop=1;jettySize=auto;html=1;exitX=0.5;exitY=0;exitDx=0;exitDy=0;endArrow=none;startFill=0;curved=0;" parent="1" source="TGHrzIEuHahXpjnbnEz_-10" edge="1">
          <mxGeometry relative="1" as="geometry">
            <mxPoint x="885" y="280" as="targetPoint" />
          </mxGeometry>
        </mxCell>
        <mxCell id="TGHrzIEuHahXpjnbnEz_-3" style="edgeStyle=orthogonalEdgeStyle;rounded=1;orthogonalLoop=1;jettySize=auto;html=1;exitX=0;exitY=0;exitDx=0;exitDy=0;entryX=1;entryY=0.5;entryDx=0;entryDy=0;curved=0;endArrow=none;startFill=0;" parent="1" source="TGHrzIEuHahXpjnbnEz_-10" target="TGHrzIEuHahXpjnbnEz_-14" edge="1">
          <mxGeometry relative="1" as="geometry" />
        </mxCell>
        <mxCell id="TGHrzIEuHahXpjnbnEz_-4" style="edgeStyle=orthogonalEdgeStyle;rounded=1;orthogonalLoop=1;jettySize=auto;html=1;exitX=0;exitY=0.25;exitDx=0;exitDy=0;entryX=1;entryY=0.5;entryDx=0;entryDy=0;endArrow=none;startFill=0;curved=0;" parent="1" source="TGHrzIEuHahXpjnbnEz_-10" target="TGHrzIEuHahXpjnbnEz_-15" edge="1">
          <mxGeometry relative="1" as="geometry" />
        </mxCell>
        <mxCell id="TGHrzIEuHahXpjnbnEz_-5" style="edgeStyle=orthogonalEdgeStyle;rounded=1;orthogonalLoop=1;jettySize=auto;html=1;exitX=0;exitY=0.5;exitDx=0;exitDy=0;entryX=1;entryY=0.5;entryDx=0;entryDy=0;endArrow=none;startFill=0;curved=0;" parent="1" source="TGHrzIEuHahXpjnbnEz_-10" target="TGHrzIEuHahXpjnbnEz_-16" edge="1">
          <mxGeometry relative="1" as="geometry" />
        </mxCell>
        <mxCell id="TGHrzIEuHahXpjnbnEz_-6" style="edgeStyle=orthogonalEdgeStyle;rounded=1;orthogonalLoop=1;jettySize=auto;html=1;exitX=0;exitY=0.75;exitDx=0;exitDy=0;entryX=1;entryY=0.5;entryDx=0;entryDy=0;endArrow=none;startFill=0;curved=0;" parent="1" source="TGHrzIEuHahXpjnbnEz_-10" target="TGHrzIEuHahXpjnbnEz_-17" edge="1">
          <mxGeometry relative="1" as="geometry" />
        </mxCell>
        <mxCell id="TGHrzIEuHahXpjnbnEz_-7" style="edgeStyle=orthogonalEdgeStyle;rounded=1;orthogonalLoop=1;jettySize=auto;html=1;exitX=0.75;exitY=0;exitDx=0;exitDy=0;entryX=0.5;entryY=1;entryDx=0;entryDy=0;curved=0;endArrow=none;startFill=0;" parent="1" source="TGHrzIEuHahXpjnbnEz_-10" target="TGHrzIEuHahXpjnbnEz_-13" edge="1">
          <mxGeometry relative="1" as="geometry" />
        </mxCell>
        <mxCell id="TGHrzIEuHahXpjnbnEz_-9" style="edgeStyle=orthogonalEdgeStyle;rounded=0;orthogonalLoop=1;jettySize=auto;html=1;exitX=0.5;exitY=1;exitDx=0;exitDy=0;entryX=1;entryY=0.5;entryDx=0;entryDy=0;endArrow=none;startFill=0;" parent="1" source="TGHrzIEuHahXpjnbnEz_-10" target="TGHrzIEuHahXpjnbnEz_-38" edge="1">
          <mxGeometry relative="1" as="geometry" />
        </mxCell>
        <mxCell id="TGHrzIEuHahXpjnbnEz_-10" value="Library Item" style="whiteSpace=wrap;html=1;align=center;" parent="1" vertex="1">
          <mxGeometry x="760" y="320" width="230" height="130" as="geometry" />
        </mxCell>
        <mxCell id="TGHrzIEuHahXpjnbnEz_-11" value="&lt;u&gt;ItemID&lt;/u&gt;" style="ellipse;whiteSpace=wrap;html=1;align=center;" parent="1" vertex="1">
          <mxGeometry x="760" y="260" width="70" height="30" as="geometry" />
        </mxCell>
        <mxCell id="TGHrzIEuHahXpjnbnEz_-12" value="Type" style="ellipse;whiteSpace=wrap;html=1;align=center;" parent="1" vertex="1">
          <mxGeometry x="850" y="260" width="70" height="30" as="geometry" />
        </mxCell>
        <mxCell id="TGHrzIEuHahXpjnbnEz_-13" value="Title" style="ellipse;whiteSpace=wrap;html=1;align=center;" parent="1" vertex="1">
          <mxGeometry x="940" y="260" width="70" height="30" as="geometry" />
        </mxCell>
        <mxCell id="TGHrzIEuHahXpjnbnEz_-14" value="Author" style="ellipse;whiteSpace=wrap;html=1;align=center;" parent="1" vertex="1">
          <mxGeometry x="670" y="280" width="70" height="30" as="geometry" />
        </mxCell>
        <mxCell id="TGHrzIEuHahXpjnbnEz_-15" value="Year" style="ellipse;whiteSpace=wrap;html=1;align=center;" parent="1" vertex="1">
          <mxGeometry x="670" y="330" width="70" height="30" as="geometry" />
        </mxCell>
        <mxCell id="TGHrzIEuHahXpjnbnEz_-16" value="Issue" style="ellipse;whiteSpace=wrap;html=1;align=center;" parent="1" vertex="1">
          <mxGeometry x="670" y="380" width="70" height="30" as="geometry" />
        </mxCell>
        <mxCell id="TGHrzIEuHahXpjnbnEz_-17" value="Location" style="ellipse;whiteSpace=wrap;html=1;align=center;" parent="1" vertex="1">
          <mxGeometry x="670" y="430" width="70" height="30" as="geometry" />
        </mxCell>
        <mxCell id="TGHrzIEuHahXpjnbnEz_-18" value="Status" style="ellipse;whiteSpace=wrap;html=1;align=center;" parent="1" vertex="1">
          <mxGeometry x="750" y="480" width="70" height="30" as="geometry" />
        </mxCell>
        <mxCell id="TGHrzIEuHahXpjnbnEz_-19" style="edgeStyle=orthogonalEdgeStyle;rounded=1;orthogonalLoop=1;jettySize=auto;html=1;exitX=0.25;exitY=1;exitDx=0;exitDy=0;entryX=0.6;entryY=0;entryDx=0;entryDy=0;entryPerimeter=0;endArrow=none;startFill=0;curved=0;" parent="1" source="TGHrzIEuHahXpjnbnEz_-10" target="TGHrzIEuHahXpjnbnEz_-18" edge="1">
          <mxGeometry relative="1" as="geometry" />
        </mxCell>
        <mxCell id="TGHrzIEuHahXpjnbnEz_-20" style="edgeStyle=orthogonalEdgeStyle;rounded=1;orthogonalLoop=1;jettySize=auto;html=1;exitX=0;exitY=0;exitDx=0;exitDy=0;entryX=0.5;entryY=1;entryDx=0;entryDy=0;curved=0;endArrow=none;startFill=0;" parent="1" source="TGHrzIEuHahXpjnbnEz_-26" target="TGHrzIEuHahXpjnbnEz_-27" edge="1">
          <mxGeometry relative="1" as="geometry" />
        </mxCell>
        <mxCell id="TGHrzIEuHahXpjnbnEz_-21" style="edgeStyle=orthogonalEdgeStyle;rounded=1;orthogonalLoop=1;jettySize=auto;html=1;exitX=0.5;exitY=0;exitDx=0;exitDy=0;entryX=0.5;entryY=1;entryDx=0;entryDy=0;curved=0;endArrow=none;startFill=0;" parent="1" source="TGHrzIEuHahXpjnbnEz_-26" target="TGHrzIEuHahXpjnbnEz_-28" edge="1">
          <mxGeometry relative="1" as="geometry" />
        </mxCell>
        <mxCell id="TGHrzIEuHahXpjnbnEz_-22" style="edgeStyle=orthogonalEdgeStyle;rounded=1;orthogonalLoop=1;jettySize=auto;html=1;exitX=1;exitY=0.25;exitDx=0;exitDy=0;entryX=0;entryY=0.5;entryDx=0;entryDy=0;curved=0;endArrow=none;startFill=0;" parent="1" source="TGHrzIEuHahXpjnbnEz_-26" target="TGHrzIEuHahXpjnbnEz_-30" edge="1">
          <mxGeometry relative="1" as="geometry" />
        </mxCell>
        <mxCell id="TGHrzIEuHahXpjnbnEz_-23" style="edgeStyle=orthogonalEdgeStyle;rounded=1;orthogonalLoop=1;jettySize=auto;html=1;exitX=1;exitY=0.5;exitDx=0;exitDy=0;entryX=0;entryY=0.5;entryDx=0;entryDy=0;curved=0;endArrow=none;startFill=0;" parent="1" source="TGHrzIEuHahXpjnbnEz_-26" target="TGHrzIEuHahXpjnbnEz_-31" edge="1">
          <mxGeometry relative="1" as="geometry" />
        </mxCell>
        <mxCell id="TGHrzIEuHahXpjnbnEz_-24" style="edgeStyle=orthogonalEdgeStyle;rounded=1;orthogonalLoop=1;jettySize=auto;html=1;exitX=1;exitY=0.75;exitDx=0;exitDy=0;entryX=0;entryY=0.5;entryDx=0;entryDy=0;curved=0;endArrow=none;startFill=0;" parent="1" source="TGHrzIEuHahXpjnbnEz_-26" target="TGHrzIEuHahXpjnbnEz_-32" edge="1">
          <mxGeometry relative="1" as="geometry" />
        </mxCell>
        <mxCell id="TGHrzIEuHahXpjnbnEz_-26" value="Member" style="rounded=0;whiteSpace=wrap;html=1;" parent="1" vertex="1">
          <mxGeometry x="1610" y="320" width="230" height="130" as="geometry" />
        </mxCell>
        <mxCell id="TGHrzIEuHahXpjnbnEz_-27" value="&lt;u&gt;MemberID&lt;/u&gt;" style="ellipse;whiteSpace=wrap;html=1;align=center;" parent="1" vertex="1">
          <mxGeometry x="1560" y="260" width="70" height="30" as="geometry" />
        </mxCell>
        <mxCell id="TGHrzIEuHahXpjnbnEz_-28" value="FirstName" style="ellipse;whiteSpace=wrap;html=1;align=center;" parent="1" vertex="1">
          <mxGeometry x="1680" y="260" width="70" height="30" as="geometry" />
        </mxCell>
        <mxCell id="TGHrzIEuHahXpjnbnEz_-29" value="LastName" style="ellipse;whiteSpace=wrap;html=1;align=center;" parent="1" vertex="1">
          <mxGeometry x="1800" y="260" width="70" height="30" as="geometry" />
        </mxCell>
        <mxCell id="TGHrzIEuHahXpjnbnEz_-30" value="PhoneNumber" style="ellipse;whiteSpace=wrap;html=1;align=center;" parent="1" vertex="1">
          <mxGeometry x="1880" y="310" width="70" height="30" as="geometry" />
        </mxCell>
        <mxCell id="TGHrzIEuHahXpjnbnEz_-31" value="Email" style="ellipse;whiteSpace=wrap;html=1;align=center;" parent="1" vertex="1">
          <mxGeometry x="1880" y="360" width="70" height="30" as="geometry" />
        </mxCell>
        <mxCell id="TGHrzIEuHahXpjnbnEz_-32" value="Type" style="ellipse;whiteSpace=wrap;html=1;align=center;" parent="1" vertex="1">
          <mxGeometry x="1880" y="410" width="70" height="30" as="geometry" />
        </mxCell>
        <mxCell id="TGHrzIEuHahXpjnbnEz_-33" style="edgeStyle=orthogonalEdgeStyle;rounded=1;orthogonalLoop=1;jettySize=auto;html=1;exitX=1;exitY=0;exitDx=0;exitDy=0;entryX=0.6;entryY=1.044;entryDx=0;entryDy=0;entryPerimeter=0;curved=0;endArrow=none;startFill=0;" parent="1" source="TGHrzIEuHahXpjnbnEz_-26" target="TGHrzIEuHahXpjnbnEz_-29" edge="1">
          <mxGeometry relative="1" as="geometry" />
        </mxCell>
        <mxCell id="ozOnRaDgAUdG-KCPziKp-41" style="rounded=0;orthogonalLoop=1;jettySize=auto;html=1;exitX=1;exitY=0.5;exitDx=0;exitDy=0;entryX=0;entryY=0.5;entryDx=0;entryDy=0;" edge="1" parent="1" source="TGHrzIEuHahXpjnbnEz_-35" target="TGHrzIEuHahXpjnbnEz_-26">
          <mxGeometry relative="1" as="geometry" />
        </mxCell>
        <mxCell id="TGHrzIEuHahXpjnbnEz_-35" value="Borrows" style="rhombus;whiteSpace=wrap;html=1;" parent="1" vertex="1">
          <mxGeometry x="1230" y="340" width="90" height="80" as="geometry" />
        </mxCell>
        <mxCell id="TGHrzIEuHahXpjnbnEz_-37" style="edgeStyle=orthogonalEdgeStyle;rounded=0;orthogonalLoop=1;jettySize=auto;html=1;exitX=0;exitY=0.5;exitDx=0;exitDy=0;" parent="1" source="TGHrzIEuHahXpjnbnEz_-38" edge="1">
          <mxGeometry relative="1" as="geometry">
            <mxPoint x="874" y="770" as="targetPoint" />
          </mxGeometry>
        </mxCell>
        <mxCell id="TGHrzIEuHahXpjnbnEz_-38" value="" style="triangle;whiteSpace=wrap;html=1;rotation=-89;" parent="1" vertex="1">
          <mxGeometry x="851.1" y="568.75" width="47.5" height="80" as="geometry" />
        </mxCell>
        <mxCell id="TGHrzIEuHahXpjnbnEz_-39" value="FutureItem" style="whiteSpace=wrap;html=1;align=center;" parent="1" vertex="1">
          <mxGeometry x="760" y="760" width="230" height="130" as="geometry" />
        </mxCell>
        <mxCell id="TGHrzIEuHahXpjnbnEz_-40" value="ISA" style="text;html=1;align=center;verticalAlign=middle;resizable=0;points=[];autosize=1;strokeColor=none;fillColor=none;" parent="1" vertex="1">
          <mxGeometry x="855" y="600" width="40" height="30" as="geometry" />
        </mxCell>
        <mxCell id="TGHrzIEuHahXpjnbnEz_-41" style="edgeStyle=orthogonalEdgeStyle;rounded=1;orthogonalLoop=1;jettySize=auto;html=1;exitX=0;exitY=0;exitDx=0;exitDy=0;entryX=0.5;entryY=1;entryDx=0;entryDy=0;curved=0;endArrow=none;startFill=0;" parent="1" source="TGHrzIEuHahXpjnbnEz_-46" target="TGHrzIEuHahXpjnbnEz_-47" edge="1">
          <mxGeometry relative="1" as="geometry" />
        </mxCell>
        <mxCell id="TGHrzIEuHahXpjnbnEz_-42" style="edgeStyle=orthogonalEdgeStyle;rounded=1;orthogonalLoop=1;jettySize=auto;html=1;exitX=0.5;exitY=0;exitDx=0;exitDy=0;entryX=0.5;entryY=1;entryDx=0;entryDy=0;curved=0;endArrow=none;startFill=0;" parent="1" source="TGHrzIEuHahXpjnbnEz_-46" target="TGHrzIEuHahXpjnbnEz_-48" edge="1">
          <mxGeometry relative="1" as="geometry" />
        </mxCell>
        <mxCell id="TGHrzIEuHahXpjnbnEz_-43" style="edgeStyle=orthogonalEdgeStyle;rounded=1;orthogonalLoop=1;jettySize=auto;html=1;exitX=1;exitY=0.25;exitDx=0;exitDy=0;entryX=0;entryY=0.5;entryDx=0;entryDy=0;curved=0;endArrow=none;startFill=0;" parent="1" source="TGHrzIEuHahXpjnbnEz_-46" target="TGHrzIEuHahXpjnbnEz_-50" edge="1">
          <mxGeometry relative="1" as="geometry" />
        </mxCell>
        <mxCell id="TGHrzIEuHahXpjnbnEz_-44" style="edgeStyle=orthogonalEdgeStyle;rounded=1;orthogonalLoop=1;jettySize=auto;html=1;exitX=1;exitY=0.5;exitDx=0;exitDy=0;entryX=0;entryY=0.5;entryDx=0;entryDy=0;curved=0;endArrow=none;startFill=0;" parent="1" source="TGHrzIEuHahXpjnbnEz_-46" target="TGHrzIEuHahXpjnbnEz_-51" edge="1">
          <mxGeometry relative="1" as="geometry" />
        </mxCell>
        <mxCell id="TGHrzIEuHahXpjnbnEz_-45" style="edgeStyle=orthogonalEdgeStyle;rounded=1;orthogonalLoop=1;jettySize=auto;html=1;exitX=1;exitY=0.75;exitDx=0;exitDy=0;entryX=0;entryY=0.5;entryDx=0;entryDy=0;curved=0;endArrow=none;startFill=0;" parent="1" source="TGHrzIEuHahXpjnbnEz_-46" target="TGHrzIEuHahXpjnbnEz_-52" edge="1">
          <mxGeometry relative="1" as="geometry" />
        </mxCell>
        <mxCell id="TGHrzIEuHahXpjnbnEz_-46" value="Personnel" style="rounded=0;whiteSpace=wrap;html=1;" parent="1" vertex="1">
          <mxGeometry x="1150" y="600" width="230" height="130" as="geometry" />
        </mxCell>
        <mxCell id="TGHrzIEuHahXpjnbnEz_-47" value="&lt;u&gt;PersonnelID&lt;/u&gt;" style="ellipse;whiteSpace=wrap;html=1;align=center;" parent="1" vertex="1">
          <mxGeometry x="1090" y="520" width="70" height="30" as="geometry" />
        </mxCell>
        <mxCell id="TGHrzIEuHahXpjnbnEz_-48" value="FirstName" style="ellipse;whiteSpace=wrap;html=1;align=center;" parent="1" vertex="1">
          <mxGeometry x="1210" y="520" width="70" height="30" as="geometry" />
        </mxCell>
        <mxCell id="TGHrzIEuHahXpjnbnEz_-49" value="LastName" style="ellipse;whiteSpace=wrap;html=1;align=center;" parent="1" vertex="1">
          <mxGeometry x="1330" y="520" width="70" height="30" as="geometry" />
        </mxCell>
        <mxCell id="TGHrzIEuHahXpjnbnEz_-50" value="Role" style="ellipse;whiteSpace=wrap;html=1;align=center;" parent="1" vertex="1">
          <mxGeometry x="1410" y="570" width="70" height="30" as="geometry" />
        </mxCell>
        <mxCell id="TGHrzIEuHahXpjnbnEz_-51" value="Location" style="ellipse;whiteSpace=wrap;html=1;align=center;" parent="1" vertex="1">
          <mxGeometry x="1410" y="620" width="70" height="30" as="geometry" />
        </mxCell>
        <mxCell id="TGHrzIEuHahXpjnbnEz_-52" value="Salary" style="ellipse;whiteSpace=wrap;html=1;align=center;" parent="1" vertex="1">
          <mxGeometry x="1410" y="670" width="70" height="30" as="geometry" />
        </mxCell>
        <mxCell id="TGHrzIEuHahXpjnbnEz_-53" style="edgeStyle=orthogonalEdgeStyle;rounded=1;orthogonalLoop=1;jettySize=auto;html=1;exitX=1;exitY=0;exitDx=0;exitDy=0;entryX=0.6;entryY=1.044;entryDx=0;entryDy=0;entryPerimeter=0;curved=0;endArrow=none;startFill=0;" parent="1" source="TGHrzIEuHahXpjnbnEz_-46" target="TGHrzIEuHahXpjnbnEz_-49" edge="1">
          <mxGeometry relative="1" as="geometry" />
        </mxCell>
        <mxCell id="TGHrzIEuHahXpjnbnEz_-54" style="edgeStyle=orthogonalEdgeStyle;rounded=1;orthogonalLoop=1;jettySize=auto;html=1;exitX=0;exitY=0;exitDx=0;exitDy=0;entryX=0.5;entryY=1;entryDx=0;entryDy=0;curved=0;endArrow=none;startFill=0;" parent="1" source="TGHrzIEuHahXpjnbnEz_-61" target="TGHrzIEuHahXpjnbnEz_-62" edge="1">
          <mxGeometry relative="1" as="geometry" />
        </mxCell>
        <mxCell id="TGHrzIEuHahXpjnbnEz_-55" style="edgeStyle=orthogonalEdgeStyle;rounded=1;orthogonalLoop=1;jettySize=auto;html=1;exitX=0.5;exitY=0;exitDx=0;exitDy=0;entryX=0.5;entryY=1;entryDx=0;entryDy=0;curved=0;endArrow=none;startFill=0;" parent="1" source="TGHrzIEuHahXpjnbnEz_-61" target="TGHrzIEuHahXpjnbnEz_-63" edge="1">
          <mxGeometry relative="1" as="geometry" />
        </mxCell>
        <mxCell id="TGHrzIEuHahXpjnbnEz_-56" style="edgeStyle=orthogonalEdgeStyle;rounded=1;orthogonalLoop=1;jettySize=auto;html=1;exitX=1;exitY=0.25;exitDx=0;exitDy=0;entryX=0;entryY=0.5;entryDx=0;entryDy=0;curved=0;endArrow=none;startFill=0;" parent="1" source="TGHrzIEuHahXpjnbnEz_-61" target="TGHrzIEuHahXpjnbnEz_-65" edge="1">
          <mxGeometry relative="1" as="geometry" />
        </mxCell>
        <mxCell id="TGHrzIEuHahXpjnbnEz_-57" style="edgeStyle=orthogonalEdgeStyle;rounded=1;orthogonalLoop=1;jettySize=auto;html=1;exitX=1;exitY=0.5;exitDx=0;exitDy=0;entryX=0;entryY=0.5;entryDx=0;entryDy=0;curved=0;endArrow=none;startFill=0;" parent="1" source="TGHrzIEuHahXpjnbnEz_-61" target="TGHrzIEuHahXpjnbnEz_-66" edge="1">
          <mxGeometry relative="1" as="geometry" />
        </mxCell>
        <mxCell id="TGHrzIEuHahXpjnbnEz_-58" style="edgeStyle=orthogonalEdgeStyle;rounded=1;orthogonalLoop=1;jettySize=auto;html=1;exitX=1;exitY=0.75;exitDx=0;exitDy=0;entryX=0;entryY=0.5;entryDx=0;entryDy=0;curved=0;endArrow=none;startFill=0;" parent="1" source="TGHrzIEuHahXpjnbnEz_-61" target="TGHrzIEuHahXpjnbnEz_-67" edge="1">
          <mxGeometry relative="1" as="geometry" />
        </mxCell>
        <mxCell id="TGHrzIEuHahXpjnbnEz_-59" style="edgeStyle=none;curved=1;rounded=0;orthogonalLoop=1;jettySize=auto;html=1;exitX=0;exitY=0.25;exitDx=0;exitDy=0;entryX=1;entryY=0.5;entryDx=0;entryDy=0;fontSize=12;startSize=8;endSize=8;endArrow=none;startFill=0;" parent="1" source="TGHrzIEuHahXpjnbnEz_-61" target="TGHrzIEuHahXpjnbnEz_-69" edge="1">
          <mxGeometry relative="1" as="geometry" />
        </mxCell>
        <mxCell id="TGHrzIEuHahXpjnbnEz_-61" value="Event" style="rounded=0;whiteSpace=wrap;html=1;" parent="1" vertex="1">
          <mxGeometry x="1615" y="920" width="230" height="130" as="geometry" />
        </mxCell>
        <mxCell id="TGHrzIEuHahXpjnbnEz_-62" value="&lt;u&gt;EventID&lt;/u&gt;" style="ellipse;whiteSpace=wrap;html=1;align=center;" parent="1" vertex="1">
          <mxGeometry x="1555" y="840" width="70" height="30" as="geometry" />
        </mxCell>
        <mxCell id="TGHrzIEuHahXpjnbnEz_-63" value="EventName" style="ellipse;whiteSpace=wrap;html=1;align=center;" parent="1" vertex="1">
          <mxGeometry x="1675" y="840" width="70" height="30" as="geometry" />
        </mxCell>
        <mxCell id="TGHrzIEuHahXpjnbnEz_-64" value="EventType" style="ellipse;whiteSpace=wrap;html=1;align=center;" parent="1" vertex="1">
          <mxGeometry x="1795" y="840" width="70" height="30" as="geometry" />
        </mxCell>
        <mxCell id="TGHrzIEuHahXpjnbnEz_-65" value="Date" style="ellipse;whiteSpace=wrap;html=1;align=center;" parent="1" vertex="1">
          <mxGeometry x="1875" y="890" width="70" height="30" as="geometry" />
        </mxCell>
        <mxCell id="TGHrzIEuHahXpjnbnEz_-66" value="AudienceType" style="ellipse;whiteSpace=wrap;html=1;align=center;" parent="1" vertex="1">
          <mxGeometry x="1875" y="940" width="70" height="30" as="geometry" />
        </mxCell>
        <mxCell id="TGHrzIEuHahXpjnbnEz_-67" value="Location" style="ellipse;whiteSpace=wrap;html=1;align=center;" parent="1" vertex="1">
          <mxGeometry x="1875" y="990" width="70" height="30" as="geometry" />
        </mxCell>
        <mxCell id="TGHrzIEuHahXpjnbnEz_-68" style="edgeStyle=orthogonalEdgeStyle;rounded=1;orthogonalLoop=1;jettySize=auto;html=1;exitX=1;exitY=0;exitDx=0;exitDy=0;entryX=0.6;entryY=1.044;entryDx=0;entryDy=0;entryPerimeter=0;curved=0;endArrow=none;startFill=0;" parent="1" source="TGHrzIEuHahXpjnbnEz_-61" target="TGHrzIEuHahXpjnbnEz_-64" edge="1">
          <mxGeometry relative="1" as="geometry" />
        </mxCell>
        <mxCell id="TGHrzIEuHahXpjnbnEz_-69" value="Room_Number" style="ellipse;whiteSpace=wrap;html=1;align=center;" parent="1" vertex="1">
          <mxGeometry x="1505" y="930" width="70" height="30" as="geometry" />
        </mxCell>
        <mxCell id="TGHrzIEuHahXpjnbnEz_-70" value="Register" style="rhombus;whiteSpace=wrap;html=1;" parent="1" vertex="1">
          <mxGeometry x="1630" y="560" width="80" height="80" as="geometry" />
        </mxCell>
        <mxCell id="TGHrzIEuHahXpjnbnEz_-87" value="" style="endArrow=none;html=1;rounded=0;" parent="1" edge="1">
          <mxGeometry width="50" height="50" relative="1" as="geometry">
            <mxPoint x="1299" y="360" as="sourcePoint" />
            <mxPoint x="1330" y="330" as="targetPoint" />
          </mxGeometry>
        </mxCell>
        <mxCell id="TGHrzIEuHahXpjnbnEz_-88" value="" style="endArrow=none;html=1;rounded=0;exitX=0;exitY=0;exitDx=0;exitDy=0;" parent="1" source="TGHrzIEuHahXpjnbnEz_-35" edge="1">
          <mxGeometry width="50" height="50" relative="1" as="geometry">
            <mxPoint x="1257" y="360" as="sourcePoint" />
            <mxPoint x="1220" y="330" as="targetPoint" />
          </mxGeometry>
        </mxCell>
        <mxCell id="TGHrzIEuHahXpjnbnEz_-89" value="DueDate" style="ellipse;whiteSpace=wrap;html=1;align=center;" parent="1" vertex="1">
          <mxGeometry x="1179" y="300" width="70" height="30" as="geometry" />
        </mxCell>
        <mxCell id="TGHrzIEuHahXpjnbnEz_-90" value="Fine" style="ellipse;whiteSpace=wrap;html=1;align=center;" parent="1" vertex="1">
          <mxGeometry x="1299" y="300" width="70" height="30" as="geometry" />
        </mxCell>
        <mxCell id="ozOnRaDgAUdG-KCPziKp-1" style="edgeStyle=orthogonalEdgeStyle;rounded=1;orthogonalLoop=1;jettySize=auto;html=1;exitX=0;exitY=0;exitDx=0;exitDy=0;entryX=0.5;entryY=1;entryDx=0;entryDy=0;curved=0;endArrow=none;startFill=0;" edge="1" parent="1" source="ozOnRaDgAUdG-KCPziKp-6" target="ozOnRaDgAUdG-KCPziKp-7">
          <mxGeometry relative="1" as="geometry" />
        </mxCell>
        <mxCell id="ozOnRaDgAUdG-KCPziKp-2" style="edgeStyle=orthogonalEdgeStyle;rounded=1;orthogonalLoop=1;jettySize=auto;html=1;exitX=0.5;exitY=0;exitDx=0;exitDy=0;entryX=0.5;entryY=1;entryDx=0;entryDy=0;curved=0;endArrow=none;startFill=0;" edge="1" parent="1" source="ozOnRaDgAUdG-KCPziKp-6" target="ozOnRaDgAUdG-KCPziKp-8">
          <mxGeometry relative="1" as="geometry" />
        </mxCell>
        <mxCell id="ozOnRaDgAUdG-KCPziKp-3" style="edgeStyle=orthogonalEdgeStyle;rounded=1;orthogonalLoop=1;jettySize=auto;html=1;exitX=1;exitY=0.25;exitDx=0;exitDy=0;entryX=0;entryY=0.5;entryDx=0;entryDy=0;curved=0;endArrow=none;startFill=0;" edge="1" parent="1" source="ozOnRaDgAUdG-KCPziKp-6" target="ozOnRaDgAUdG-KCPziKp-10">
          <mxGeometry relative="1" as="geometry" />
        </mxCell>
        <mxCell id="ozOnRaDgAUdG-KCPziKp-4" style="edgeStyle=orthogonalEdgeStyle;rounded=1;orthogonalLoop=1;jettySize=auto;html=1;exitX=1;exitY=0.5;exitDx=0;exitDy=0;entryX=0;entryY=0.5;entryDx=0;entryDy=0;curved=0;endArrow=none;startFill=0;" edge="1" parent="1" source="ozOnRaDgAUdG-KCPziKp-6" target="ozOnRaDgAUdG-KCPziKp-11">
          <mxGeometry relative="1" as="geometry" />
        </mxCell>
        <mxCell id="ozOnRaDgAUdG-KCPziKp-6" value="VolunteeringPositions" style="rounded=0;whiteSpace=wrap;html=1;" vertex="1" parent="1">
          <mxGeometry x="2120" y="650" width="230" height="130" as="geometry" />
        </mxCell>
        <mxCell id="ozOnRaDgAUdG-KCPziKp-7" value="&lt;u&gt;PositionID&lt;/u&gt;" style="ellipse;whiteSpace=wrap;html=1;align=center;" vertex="1" parent="1">
          <mxGeometry x="2070" y="590" width="70" height="30" as="geometry" />
        </mxCell>
        <mxCell id="ozOnRaDgAUdG-KCPziKp-8" value="positionName" style="ellipse;whiteSpace=wrap;html=1;align=center;" vertex="1" parent="1">
          <mxGeometry x="2190" y="590" width="70" height="30" as="geometry" />
        </mxCell>
        <mxCell id="ozOnRaDgAUdG-KCPziKp-9" value="positionDescription" style="ellipse;whiteSpace=wrap;html=1;align=center;" vertex="1" parent="1">
          <mxGeometry x="2310" y="590" width="70" height="30" as="geometry" />
        </mxCell>
        <mxCell id="ozOnRaDgAUdG-KCPziKp-10" value="location" style="ellipse;whiteSpace=wrap;html=1;align=center;" vertex="1" parent="1">
          <mxGeometry x="2390" y="640" width="70" height="30" as="geometry" />
        </mxCell>
        <mxCell id="ozOnRaDgAUdG-KCPziKp-11" value="isAvailable" style="ellipse;whiteSpace=wrap;html=1;align=center;" vertex="1" parent="1">
          <mxGeometry x="2390" y="690" width="70" height="30" as="geometry" />
        </mxCell>
        <mxCell id="ozOnRaDgAUdG-KCPziKp-13" style="edgeStyle=orthogonalEdgeStyle;rounded=1;orthogonalLoop=1;jettySize=auto;html=1;exitX=1;exitY=0;exitDx=0;exitDy=0;entryX=0.6;entryY=1.044;entryDx=0;entryDy=0;entryPerimeter=0;curved=0;endArrow=none;startFill=0;" edge="1" parent="1" source="ozOnRaDgAUdG-KCPziKp-6" target="ozOnRaDgAUdG-KCPziKp-9">
          <mxGeometry relative="1" as="geometry" />
        </mxCell>
        <mxCell id="ozOnRaDgAUdG-KCPziKp-16" style="rounded=0;orthogonalLoop=1;jettySize=auto;html=1;exitX=1;exitY=1;exitDx=0;exitDy=0;entryX=0;entryY=0.5;entryDx=0;entryDy=0;" edge="1" parent="1" source="ozOnRaDgAUdG-KCPziKp-14" target="ozOnRaDgAUdG-KCPziKp-6">
          <mxGeometry relative="1" as="geometry" />
        </mxCell>
        <mxCell id="ozOnRaDgAUdG-KCPziKp-19" style="rounded=0;orthogonalLoop=1;jettySize=auto;html=1;exitX=0;exitY=0;exitDx=0;exitDy=0;entryX=0.75;entryY=1;entryDx=0;entryDy=0;" edge="1" parent="1" source="ozOnRaDgAUdG-KCPziKp-14" target="TGHrzIEuHahXpjnbnEz_-26">
          <mxGeometry relative="1" as="geometry" />
        </mxCell>
        <mxCell id="ozOnRaDgAUdG-KCPziKp-14" value="Volunteer" style="rhombus;whiteSpace=wrap;html=1;" vertex="1" parent="1">
          <mxGeometry x="1850" y="520" width="80" height="80" as="geometry" />
        </mxCell>
        <mxCell id="ozOnRaDgAUdG-KCPziKp-20" style="edgeStyle=orthogonalEdgeStyle;rounded=1;orthogonalLoop=1;jettySize=auto;html=1;exitX=0;exitY=0;exitDx=0;exitDy=0;entryX=0.5;entryY=1;entryDx=0;entryDy=0;curved=0;endArrow=none;startFill=0;" edge="1" parent="1" source="ozOnRaDgAUdG-KCPziKp-25" target="ozOnRaDgAUdG-KCPziKp-26">
          <mxGeometry relative="1" as="geometry" />
        </mxCell>
        <mxCell id="ozOnRaDgAUdG-KCPziKp-21" style="edgeStyle=orthogonalEdgeStyle;rounded=1;orthogonalLoop=1;jettySize=auto;html=1;exitX=0.5;exitY=0;exitDx=0;exitDy=0;entryX=0.5;entryY=1;entryDx=0;entryDy=0;curved=0;endArrow=none;startFill=0;" edge="1" parent="1" source="ozOnRaDgAUdG-KCPziKp-25" target="ozOnRaDgAUdG-KCPziKp-27">
          <mxGeometry relative="1" as="geometry" />
        </mxCell>
        <mxCell id="ozOnRaDgAUdG-KCPziKp-25" value="HelpRequest" style="rounded=0;whiteSpace=wrap;html=1;" vertex="1" parent="1">
          <mxGeometry x="2260" y="120" width="230" height="130" as="geometry" />
        </mxCell>
        <mxCell id="ozOnRaDgAUdG-KCPziKp-26" value="&lt;u&gt;RequestID&lt;/u&gt;" style="ellipse;whiteSpace=wrap;html=1;align=center;" vertex="1" parent="1">
          <mxGeometry x="2210" y="60" width="70" height="30" as="geometry" />
        </mxCell>
        <mxCell id="ozOnRaDgAUdG-KCPziKp-27" value="RequestDate" style="ellipse;whiteSpace=wrap;html=1;align=center;" vertex="1" parent="1">
          <mxGeometry x="2330" y="60" width="70" height="30" as="geometry" />
        </mxCell>
        <mxCell id="ozOnRaDgAUdG-KCPziKp-28" value="Topic" style="ellipse;whiteSpace=wrap;html=1;align=center;" vertex="1" parent="1">
          <mxGeometry x="2450" y="60" width="70" height="30" as="geometry" />
        </mxCell>
        <mxCell id="ozOnRaDgAUdG-KCPziKp-32" style="edgeStyle=orthogonalEdgeStyle;rounded=1;orthogonalLoop=1;jettySize=auto;html=1;exitX=1;exitY=0;exitDx=0;exitDy=0;entryX=0.6;entryY=1.044;entryDx=0;entryDy=0;entryPerimeter=0;curved=0;endArrow=none;startFill=0;" edge="1" parent="1" source="ozOnRaDgAUdG-KCPziKp-25" target="ozOnRaDgAUdG-KCPziKp-28">
          <mxGeometry relative="1" as="geometry" />
        </mxCell>
        <mxCell id="ozOnRaDgAUdG-KCPziKp-37" style="rounded=0;orthogonalLoop=1;jettySize=auto;html=1;exitX=1;exitY=0.5;exitDx=0;exitDy=0;entryX=0;entryY=0.5;entryDx=0;entryDy=0;" edge="1" parent="1" source="ozOnRaDgAUdG-KCPziKp-36" target="ozOnRaDgAUdG-KCPziKp-25">
          <mxGeometry relative="1" as="geometry" />
        </mxCell>
        <mxCell id="ozOnRaDgAUdG-KCPziKp-36" value="Request" style="rhombus;whiteSpace=wrap;html=1;" vertex="1" parent="1">
          <mxGeometry x="2030" y="180" width="80" height="80" as="geometry" />
        </mxCell>
        <mxCell id="ozOnRaDgAUdG-KCPziKp-39" value="" style="endArrow=none;html=1;rounded=0;entryX=0;entryY=0.5;entryDx=0;entryDy=0;" edge="1" parent="1" target="ozOnRaDgAUdG-KCPziKp-36">
          <mxGeometry width="50" height="50" relative="1" as="geometry">
            <mxPoint x="1840" y="320" as="sourcePoint" />
            <mxPoint x="2080" y="340" as="targetPoint" />
          </mxGeometry>
        </mxCell>
        <mxCell id="ozOnRaDgAUdG-KCPziKp-42" value="" style="endArrow=none;html=1;rounded=0;entryX=0;entryY=0.5;entryDx=0;entryDy=0;exitX=1;exitY=0.5;exitDx=0;exitDy=0;" edge="1" parent="1" source="TGHrzIEuHahXpjnbnEz_-10" target="TGHrzIEuHahXpjnbnEz_-35">
          <mxGeometry width="50" height="50" relative="1" as="geometry">
            <mxPoint x="1270" y="610" as="sourcePoint" />
            <mxPoint x="1320" y="560" as="targetPoint" />
          </mxGeometry>
        </mxCell>
        <mxCell id="ozOnRaDgAUdG-KCPziKp-43" value="" style="endArrow=none;html=1;rounded=0;entryX=0.25;entryY=1;entryDx=0;entryDy=0;exitX=0.5;exitY=0;exitDx=0;exitDy=0;" edge="1" parent="1" source="TGHrzIEuHahXpjnbnEz_-70" target="TGHrzIEuHahXpjnbnEz_-26">
          <mxGeometry width="50" height="50" relative="1" as="geometry">
            <mxPoint x="1270" y="610" as="sourcePoint" />
            <mxPoint x="1320" y="560" as="targetPoint" />
          </mxGeometry>
        </mxCell>
        <mxCell id="ozOnRaDgAUdG-KCPziKp-44" value="" style="endArrow=none;html=1;rounded=0;exitX=0.25;exitY=0;exitDx=0;exitDy=0;" edge="1" parent="1" source="TGHrzIEuHahXpjnbnEz_-61">
          <mxGeometry width="50" height="50" relative="1" as="geometry">
            <mxPoint x="1270" y="610" as="sourcePoint" />
            <mxPoint x="1670" y="640" as="targetPoint" />
          </mxGeometry>
        </mxCell>
      </root>
    </mxGraphModel>
  </diagram>
</mxfile>
